<svg width="808" height="98" viewBox="0 0 808 98" fill="none" xmlns="http://www.w3.org/2000/svg">
    <mask id="path-1-inside-1_2_1102" fill="white">
    <path d="M-392 0H808V98H-392V0Z"/>
    </mask>
    <path d="M808 97H-392V99H808V97Z" fill="white" fill-opacity="0.15" mask="url(#path-1-inside-1_2_1102)"/>
    <g clip-path="url(#clip0_2_1102)">
    <path d="M267.789 85V78.036C267.892 76.5938 268.938 75.2945 269.918 75.2945C270.794 75.2945 271.329 75.6323 271.329 78.01V85H274.028L274.005 77.6073C274.153 76.2301 275.257 75.2945 276.054 75.2945C276.931 75.2945 277.375 75.6323 277.375 78.01V85H280.153V77.4643C280.153 73.7484 278.821 72.1114 276.226 72.1114C275.144 72.1114 273.971 72.8001 273.083 73.7874C272.457 72.6701 271.649 72.1114 270.283 72.1114C269.428 72.1114 268.483 72.5922 267.789 73.5146V72.3712H265.01V85H267.789Z" fill="#9C59F6"/>
    <path d="M283.084 75.5414H284.598V85H287.376V75.5414H289.585V72.3712H287.376V71.8645C287.376 70.3834 287.934 69.9806 288.538 70.0066C289.015 70.0326 289.631 70.2794 290.166 70.5912L290.621 67.8239C289.858 67.3691 288.799 66.9663 287.854 66.9663C286.078 66.9663 284.598 68.6164 284.598 71.4098V72.3712H283.084V75.5414Z" fill="#9C59F6"/>
    <path d="M295.544 70.9551C296.557 70.9551 297.286 70.1105 297.286 68.9672C297.286 67.8109 296.557 66.9663 295.544 66.9663C294.53 66.9663 293.802 67.8109 293.802 68.9672C293.802 70.1105 294.53 70.9551 295.544 70.9551ZM297 85V72.3712H294.223V85H297Z" fill="#9C59F6"/>
    <path d="M192.659 59.9359V23.4892H206.574C215.037 23.4892 221.78 31.8383 221.78 41.7673C221.78 51.6963 214.945 59.9399 206.574 59.9399H192.659V59.9359ZM198.256 53.5033H206.092C211.781 53.5033 216.162 48.1714 216.162 41.7673C216.162 35.3632 211.849 29.9258 206.39 29.9258H198.256V53.5074V53.5033Z" fill="#9C59F6"/>
    <path d="M223.66 27.5339C223.66 25.1988 225.129 23.4892 227.168 23.4892C229.208 23.4892 230.676 25.1948 230.676 27.5339C230.676 29.8729 229.208 31.55 227.168 31.55C225.129 31.55 223.66 29.8446 223.66 27.5339ZM224.508 59.9359V34.413H230.105V59.9359H224.508Z" fill="#9C59F6"/>
    <path d="M258.937 47.1482C258.937 39.8995 263.774 33.8892 270.219 33.8892C272.628 33.8892 275.082 34.8356 276.551 36.7523V34.4172H282.148V59.9401H276.551V57.5238C275.359 59.0994 273.018 60.464 270.219 60.464C263.774 60.464 258.937 54.8721 258.937 47.1522V47.1482ZM276.367 47.3066C276.367 43.7086 273.845 40.269 270.219 40.269C266.892 40.269 264.508 43.6557 264.508 47.1482C264.508 51.2173 266.939 54.003 270.219 54.0558C273.568 54.133 276.367 51.4568 276.367 47.3066Z" fill="#9C59F6"/>
    <path d="M250.635 34.4128V36.9591C249.213 35.1722 246.99 33.9133 244.375 33.9133C237.93 33.9133 233.021 40.1348 233.021 47.1235C233.021 54.6321 237.93 60.4352 244.375 60.4352C246.784 60.4352 248.848 59.5175 250.523 57.6779V58.9124C250.523 62.5103 247.564 64.4798 244.284 64.4271C244.262 64.4271 244.241 64.4271 244.223 64.4271V70.9123C244.251 70.9123 244.279 70.9123 244.308 70.9123C251.118 70.9652 256.233 65.686 256.233 57.3611V34.4128H250.635ZM244.375 54.0799C241.048 54.0799 238.597 51.0869 238.597 47.1194C238.597 43.7042 241.098 40.293 244.375 40.293C247.976 40.293 250.635 43.2331 250.635 46.9611C250.635 50.689 248.09 54.0758 244.375 54.0758V54.0799Z" fill="#9C59F6"/>
    <path d="M295.968 23.5337C295.968 23.5337 292.666 23.3388 290.515 25.7997C288.366 28.2606 288.245 32.1389 288.245 32.1389C288.214 32.5368 288.196 32.9389 288.196 33.3571V34.4372H285.407V40.6424H288.196L288.03 59.9885H293.698L293.865 40.6424H298.922V34.4372H293.865V33.3571C293.865 32.3784 294.141 31.5824 294.713 30.9327C295.234 30.3357 295.996 30.023 296.755 29.9743H298.926V23.5378H295.965L295.968 23.5337Z" fill="#9C59F6"/>
    <path d="M303.377 13.4142H304.385V16.7929H304.817V13.4142H305.828V13H303.377V13.4142Z" fill="#04072A"/>
    <path d="M309.287 13H308.741L308.152 14.8355C308.004 15.3147 307.886 15.7289 307.805 16.1147H307.791C307.705 15.7208 307.595 15.3025 307.456 14.8355L306.893 13H306.347L306.116 16.7929H306.524L306.613 15.1685C306.642 14.6 306.666 13.9665 306.677 13.4914H306.687C306.779 13.9421 306.914 14.4294 307.071 14.9655L307.606 16.7726H307.928L308.514 14.933C308.681 14.4091 308.818 13.9381 308.932 13.4914H308.947C308.943 13.9624 308.972 14.6 308.997 15.1279L309.082 16.7929H309.5L309.294 13H309.287Z" fill="#04072A"/>
    <path d="M148.352 16.5939C148.281 16.5939 148.214 16.5939 148.143 16.5939H139.577V33.5035H148.143C148.214 33.5035 148.281 33.5035 148.352 33.5035C152.431 33.5035 155.737 37.2884 155.737 41.9584C155.737 46.6284 152.431 50.4132 148.352 50.4132C148.281 50.4132 148.214 50.4132 148.143 50.4091L139.577 50.4132V33.5035H124.81V67.3229H148.143C148.214 67.3229 148.281 67.3229 148.352 67.3229C160.586 67.3229 170.507 55.9685 170.507 41.9584C170.507 27.9482 160.586 16.5939 148.352 16.5939Z" fill="url(#paint0_linear_2_1102)"/>
    <path d="M121.27 50.4131H106.5V67.3228H121.27V50.4131Z" fill="url(#paint1_linear_2_1102)"/>
    </g>
    <defs>
    <linearGradient id="paint0_linear_2_1102" x1="101.538" y1="100.102" x2="179.782" y2="25.7646" gradientUnits="userSpaceOnUse">
    <stop stop-color="#771BFA"/>
    <stop offset="1" stop-color="#FAF3EE"/>
    </linearGradient>
    <linearGradient id="paint1_linear_2_1102" x1="90.2828" y1="88.2568" x2="168.527" y2="13.9188" gradientUnits="userSpaceOnUse">
    <stop stop-color="#771BFA"/>
    <stop offset="1" stop-color="#FAF3EE"/>
    </linearGradient>
    <clipPath id="clip0_2_1102">
    <rect width="203" height="72" fill="white" transform="translate(106.5 13)"/>
    </clipPath>
    </defs>
    </svg>
    