<svg width="268" height="265" viewBox="0 0 268 265" fill="none" xmlns="http://www.w3.org/2000/svg">
<g filter="url(#filter0_i_2_453)">
<path d="M248.188 132.659C247.986 70.1739 196.637 19.4496 133.496 19.363C70.3552 19.2764 19.3332 69.8603 19.5362 132.345C19.7381 194.83 71.0868 245.554 134.228 245.64C197.368 245.727 248.39 195.143 248.188 132.659Z" fill="url(#paint0_radial_2_453)"/>
<path d="M248.188 132.659C247.986 70.1739 196.637 19.4496 133.496 19.363C70.3552 19.2764 19.3332 69.8603 19.5362 132.345C19.7381 194.83 71.0868 245.554 134.228 245.64C197.368 245.727 248.39 195.143 248.188 132.659Z" fill="url(#paint1_radial_2_453)"/>
</g>
<defs>
<filter id="filter0_i_2_453" x="19.5356" y="19.3629" width="228.653" height="226.277" filterUnits="userSpaceOnUse" color-interpolation-filters="sRGB">
<feFlood flood-opacity="0" result="BackgroundImageFix"/>
<feBlend mode="normal" in="SourceGraphic" in2="BackgroundImageFix" result="shape"/>
<feColorMatrix in="SourceAlpha" type="matrix" values="0 0 0 0 0 0 0 0 0 0 0 0 0 0 0 0 0 0 127 0" result="hardAlpha"/>
<feOffset/>
<feGaussianBlur stdDeviation="15"/>
<feComposite in2="hardAlpha" operator="arithmetic" k2="-1" k3="1"/>
<feColorMatrix type="matrix" values="0 0 0 0 0.432292 0 0 0 0 0.262587 0 0 0 0 0.192708 0 0 0 0.25 0"/>
<feBlend mode="normal" in2="shape" result="effect1_innerShadow_2_453"/>
</filter>
<radialGradient id="paint0_radial_2_453" cx="0" cy="0" r="1" gradientUnits="userSpaceOnUse" gradientTransform="translate(96.1907 192.548) rotate(-57.2851) scale(227.943 229.899)">
<stop offset="0.632069" stop-color="#111111"/>
<stop offset="0.848958" stop-color="#512A19"/>
<stop offset="0.895026" stop-color="#433649"/>
</radialGradient>
<radialGradient id="paint1_radial_2_453" cx="0" cy="0" r="1" gradientUnits="userSpaceOnUse" gradientTransform="translate(213.455 26.9346) rotate(122.837) scale(331.148 333.998)">
<stop offset="0.54123" stop-color="#F2F2F2" stop-opacity="0"/>
<stop offset="0.86602" stop-opacity="0.62"/>
</radialGradient>
</defs>
</svg>
